<svg xmlns="http://www.w3.org/2000/svg" width="26" height="167" fill="none" viewBox="0 0 26 167"><rect width="12" height="151" x="7" y="5" fill="#EEE" rx="6"/><g filter="url(#filter0_f_115_1118)"><rect width="14" height="14" x="6" y="6" fill="#292C27" rx="7"/></g><rect width="13" height="13" x="6.5" y="4.5" fill="#292C27" stroke="#fff" stroke-width="3" rx="6.5"/><rect width="4" height="4" x="11" y="25" fill="#C4C4C4" rx="2"/><rect width="4" height="4" x="11" y="37" fill="#C4C4C4" rx="2"/><rect width="4" height="4" x="11" y="49" fill="#C4C4C4" rx="2"/><rect width="4" height="4" x="11" y="61" fill="#C4C4C4" rx="2"/><rect width="4" height="4" x="11" y="73" fill="#C4C4C4" rx="2"/><rect width="4" height="4" x="11" y="85" fill="#C4C4C4" rx="2"/><rect width="4" height="4" x="11" y="97" fill="#30AF5B" rx="2"/><rect width="4" height="4" x="11" y="109" fill="#30AF5B" rx="2"/><rect width="4" height="4" x="11" y="121" fill="#30AF5B" rx="2"/><rect width="4" height="4" x="11" y="133" fill="#30AF5B" rx="2"/><g filter="url(#filter1_f_115_1118)"><rect width="14" height="14" x="6" y="147" fill="#30AF5B" rx="7"/></g><rect width="13" height="13" x="6.5" y="145.5" fill="#30AF5B" stroke="#fff" stroke-width="3" rx="6.5"/><defs><filter id="filter0_f_115_1118" width="26" height="26" x="0" y="0" color-interpolation-filters="sRGB" filterUnits="userSpaceOnUse"><feFlood flood-opacity="0" result="BackgroundImageFix"/><feBlend in="SourceGraphic" in2="BackgroundImageFix" mode="normal" result="shape"/><feGaussianBlur result="effect1_foregroundBlur_115_1118" stdDeviation="3"/></filter><filter id="filter1_f_115_1118" width="26" height="26" x="0" y="141" color-interpolation-filters="sRGB" filterUnits="userSpaceOnUse"><feFlood flood-opacity="0" result="BackgroundImageFix"/><feBlend in="SourceGraphic" in2="BackgroundImageFix" mode="normal" result="shape"/><feGaussianBlur result="effect1_foregroundBlur_115_1118" stdDeviation="3"/></filter></defs></svg>